<svg xmlns="http://www.w3.org/2000/svg" viewBox="0 0 82.79 140"><title>apt25-logo</title><path d="M13.95,0l8.64,23.1H17.31L15.56,18H6.92L5.11,23.1H0L8.73,0Zm.29,14.17L11.32,5.69h-.06l-3,8.48Z"/><path d="M43.28,0A9.62,9.62,0,0,1,47,.63,6.86,6.86,0,0,1,49.44,2.3a6.29,6.29,0,0,1,1.39,2.36,8.77,8.77,0,0,1,0,5.49,6.3,6.3,0,0,1-1.39,2.38A6.83,6.83,0,0,1,47,14.19a9.57,9.57,0,0,1-3.69.63H37.94V23.1H32.85V0ZM41.88,10.87a10.59,10.59,0,0,0,1.68-.13,3.9,3.9,0,0,0,1.42-.5,2.74,2.74,0,0,0,1-1,3.71,3.71,0,0,0,.37-1.78A3.71,3.71,0,0,0,46,5.63a2.74,2.74,0,0,0-1-1.05,4,4,0,0,0-1.42-.5,10.88,10.88,0,0,0-1.68-.13H37.94v6.92Z"/><path d="M70.62,0l8.64,23.1H74L72.23,18H63.6L61.78,23.1H56.67L65.41,0Zm.29,14.17L68,5.69h-.06l-3,8.48Z"/><path d="M14.89,38.83a7.49,7.49,0,0,1,2.79.5,6.44,6.44,0,0,1,2.14,1.38,5.92,5.92,0,0,1,1.36,2,6.43,6.43,0,0,1,.47,2.47,6.94,6.94,0,0,1-.85,3.53A5.39,5.39,0,0,1,18,51v.07a3.8,3.8,0,0,1,1.55.79,4.3,4.3,0,0,1,1,1.26,5.92,5.92,0,0,1,.57,1.6,14,14,0,0,1,.24,1.75c0,.36,0,.8.06,1.29s.06,1,.12,1.52a10,10,0,0,0,.25,1.47,3.37,3.37,0,0,0,.54,1.18H17.25a8.76,8.76,0,0,1-.52-2.62c-.06-1-.16-2-.29-2.91a4.65,4.65,0,0,0-1.1-2.66,3.78,3.78,0,0,0-2.75-.84H7.51v9H2.43V38.83ZM13.07,49.28a3.85,3.85,0,0,0,2.62-.78A3.23,3.23,0,0,0,16.57,46a3.08,3.08,0,0,0-.88-2.44,3.88,3.88,0,0,0-2.62-.76H7.51v6.5Z"/><path d="M29.87,43.09V38.83H48.79v4.27H41.87V61.93H36.79V43.09Z"/><path d="M65.06,38.83l5.4,15.89h.07l5.11-15.89h7.14v23.1H78V45.55H78L72.31,61.93H68.4L62.74,45.72h-.06V61.93H57.92V38.83Z"/><path d="M19.71,77.65v4.27H7.51v5H18.7v3.94H7.51v5.66H20v4.27H2.43V77.65Z"/><path d="M34.91,77.65l9.64,15.49h.06V77.65h4.76v23.1H44.29L34.68,85.29h-.06v15.47H29.87V77.65Z"/><path d="M58.5,81.92V77.65H77.42v4.27H70.5v18.83H65.42V81.92Z"/><path d="M1.85,122a8.51,8.51,0,0,1,1.55-2.91A7,7,0,0,1,6,117.17a8.82,8.82,0,0,1,3.61-.7,8.94,8.94,0,0,1,3,.49A7.56,7.56,0,0,1,15,118.35a6.51,6.51,0,0,1,1.7,2.24,6.79,6.79,0,0,1,.64,3,7.19,7.19,0,0,1-.55,2.95,7.8,7.8,0,0,1-1.45,2.18,12.46,12.46,0,0,1-2.06,1.73c-.77.52-1.54,1-2.32,1.54S9.47,133,8.73,133.59a10.27,10.27,0,0,0-1.94,2H17.5v3.95H.88a9.44,9.44,0,0,1,.57-3.43A9.07,9.07,0,0,1,3,133.54a13.47,13.47,0,0,1,2.28-2.12c.88-.65,1.79-1.3,2.77-2,.49-.34,1-.69,1.59-1.05a10.45,10.45,0,0,0,1.54-1.18,6.35,6.35,0,0,0,1.16-1.46,3.61,3.61,0,0,0,.47-1.85,3.42,3.42,0,0,0-1-2.57,3.37,3.37,0,0,0-2.44-.92,3,3,0,0,0-1.7.47,3.44,3.44,0,0,0-1.11,1.23,5.43,5.43,0,0,0-.6,1.68,9.55,9.55,0,0,0-.18,1.83H1.39A11,11,0,0,1,1.85,122Z"/><path d="M31.49,120.71l-.91,5.15.06.07a5.58,5.58,0,0,1,2-1.34,6.71,6.71,0,0,1,2.43-.41,6.94,6.94,0,0,1,3,.62,6.45,6.45,0,0,1,2.18,1.65,7,7,0,0,1,1.37,2.44,9.37,9.37,0,0,1,.46,3,7.82,7.82,0,0,1-.68,3.25,8.36,8.36,0,0,1-1.83,2.6,8.1,8.1,0,0,1-2.67,1.7,8.38,8.38,0,0,1-3.23.57,11.29,11.29,0,0,1-3.16-.44,7.88,7.88,0,0,1-2.67-1.34,6.68,6.68,0,0,1-2.58-5.37h4.59A3.7,3.7,0,0,0,31,135.32a3.62,3.62,0,0,0,2.55.92,3.54,3.54,0,0,0,1.64-.37,3.77,3.77,0,0,0,1.22-1,4.22,4.22,0,0,0,.78-1.39,4.9,4.9,0,0,0,.28-1.63,5.14,5.14,0,0,0-.26-1.65,4,4,0,0,0-.78-1.36A3.65,3.65,0,0,0,35.2,128a4.64,4.64,0,0,0-3.66.11,4.71,4.71,0,0,0-1.45,1.37H25.95l2.23-12.52H40.83v3.78Z"/><path d="M82.79,128.77v3.95h-32v-3.95Z"/></svg>
