<svg class="blog-icon" xmlns="http://www.w3.org/2000/svg" viewBox="0 0 36.01 23.15"><title>icon-look</title><path d="M35.61,10.19A21.08,21.08,0,0,0,18,0,21.08,21.08,0,0,0,.4,10.19,2.59,2.59,0,0,0,.4,13,21.08,21.08,0,0,0,18,23.15,21,21,0,0,0,35.61,13a2.59,2.59,0,0,0,0-2.77ZM18,2.89a1,1,0,0,1,0,1.93A4.2,4.2,0,0,0,13.83,9,1,1,0,1,1,11.9,9,6.13,6.13,0,0,1,18,2.89Zm0,17.68c-6.45,0-12-3.7-15.43-9a20.28,20.28,0,0,1,7.66-7.09,9,9,0,1,0,15.55,0,20.28,20.28,0,0,1,7.66,7.09C30,16.88,24.46,20.58,18,20.58Z" style="fill:#231f20"/></svg>
