<svg class="blog-icon" xmlns="http://www.w3.org/2000/svg" viewBox="0 0 23.15 33.44"><title>icon-news</title><path d="M18,15.43V5.14a2.59,2.59,0,0,0,2.57-2.57A2.59,2.59,0,0,0,18,0H5.14A2.59,2.59,0,0,0,2.57,2.57,2.59,2.59,0,0,0,5.14,5.14V15.43C2.49,15.43,0,18.57,0,21.86a1.3,1.3,0,0,0,1.29,1.29H9.4l1.53,9.75a.65.65,0,0,0,.64.54h0a.65.65,0,0,0,.62-.58l1-9.71h8.62a1.3,1.3,0,0,0,1.29-1.29C23.15,18.57,20.66,15.43,18,15.43Zm-8.36-.64a.64.64,0,1,1-1.29,0v-9a.64.64,0,0,1,1.29,0Z" style="fill:#231f20"/></svg>
